<svg width="640" height="480" xmlns="http://www.w3.org/2000/svg">
 <!-- Created with SVG-edit - http://svg-edit.googlecode.com/ -->
 <g>
  <title>Layer 1</title>
  <rect id="svg_1" height="341.999995" width="607.999997" y="67" x="19.999977" stroke-width="5" stroke="#000000" fill="none"/>
  <rect id="svg_2" height="67.000003" width="87" y="68" x="20" stroke-linecap="null" stroke-linejoin="null" stroke-width="5" stroke="#000000" fill="none"/>
  <rect id="svg_3" height="66.000002" width="87" y="342.999998" x="19.5" stroke-linecap="null" stroke-linejoin="null" stroke-width="5" stroke="#000000" fill="none"/>
  <path transform="rotate(89.15840911865234 39.2449951171875,236.70884704589847) " id="svg_4" d="m-6.836326,217.798019l92.162642,0l0,25.213638l-92.162642,0l0,-25.213638zm0,12.606827l92.162642,0l0,25.214828l-92.162642,0l0,-25.214828z" stroke-linecap="null" stroke-linejoin="null" stroke-width="5" stroke="#000000" fill="none"/>
  <g id="svg_11">
   <rect id="svg_6" height="68.000004" width="87.980287" y="68" x="170.49998" stroke-linecap="null" stroke-linejoin="null" stroke-width="5" stroke="#000000" fill="none"/>
   <rect id="svg_7" height="68.000004" width="59.664791" y="68" x="259.491534" stroke-linecap="null" stroke-linejoin="null" stroke-width="5" stroke="#000000" fill="none"/>
   <rect id="svg_8" height="68.000004" width="59.664791" y="68" x="320.167594" stroke-linecap="null" stroke-linejoin="null" stroke-width="5" stroke="#000000" fill="none"/>
   <rect id="svg_9" height="68.000004" width="59.664791" y="68" x="380.843654" stroke-linecap="null" stroke-linejoin="null" stroke-width="5" stroke="#000000" fill="none"/>
   <rect id="svg_10" height="68.000004" width="87.980287" y="68" x="441.519713" stroke-linecap="null" stroke-linejoin="null" stroke-width="5" stroke="#000000" fill="none"/>
  </g>
  <g id="svg_12">
   <rect id="svg_13" height="67.000003" width="87.245072" y="341.999997" x="168.499995" stroke-linecap="null" stroke-linejoin="null" stroke-width="5" stroke="#000000" fill="none"/>
   <rect id="svg_14" height="67.000003" width="59.166197" y="341.999997" x="256.747884" stroke-linecap="null" stroke-linejoin="null" stroke-width="5" stroke="#000000" fill="none"/>
   <rect id="svg_15" height="67.000003" width="59.166197" y="341.999997" x="316.916898" stroke-linecap="null" stroke-linejoin="null" stroke-width="5" stroke="#000000" fill="none"/>
   <rect id="svg_16" height="67.000003" width="59.166197" y="341.999997" x="377.085913" stroke-linecap="null" stroke-linejoin="null" stroke-width="5" stroke="#000000" fill="none"/>
   <rect id="svg_17" height="67.000003" width="87.245072" y="341.999997" x="437.254928" stroke-linecap="null" stroke-linejoin="null" stroke-width="5" stroke="#000000" fill="none"/>
  </g>
  <path id="svg_19" d="m247.347168,179.122345l233.319153,0l0,0c30.559753,0 55.335144,27.010147 55.335144,60.33136c0,33.318573 -24.775391,60.328766 -55.335144,60.328766l-233.319153,0l0,0c-30.570313,0 -55.345703,-27.010193 -55.345703,-60.328766c0,-33.321213 24.775391,-60.33136 55.345703,-60.33136z" stroke-linecap="null" stroke-linejoin="null" stroke-width="5" stroke="#000000" fill="none"/>
  <path transform="rotate(90.03176879882812 133.6905517578125,236.98928833007812) " id="svg_20" d="m83.502083,204.721161l100.379173,0l0,0c13.150116,0 23.809296,14.445526 23.809296,32.268127c0,17.822586 -10.65918,32.268127 -23.809296,32.268127l-100.379173,0l0,0c-13.152344,0 -23.811527,-14.445541 -23.811527,-32.268127c0,-17.822601 10.659184,-32.268127 23.811527,-32.268127z" stroke-linecap="null" stroke-linejoin="null" stroke-width="5" stroke="#000000" fill="none"/>
  <g id="svg_23">
   <rect id="svg_21" height="71" width="60" y="157" x="568" stroke-linecap="null" stroke-linejoin="null" stroke-width="5" stroke="#000000" fill="none"/>
   <rect id="svg_22" height="71" width="60" y="228.5" x="568" stroke-linecap="null" stroke-linejoin="null" stroke-width="5" stroke="#000000" fill="none"/>
  </g>
  <path id="svg_24" transform="rotate(-179.99998474121094 581,390.5) " d="m550.91864,373.089172l60.162659,0l0,23.213715l-60.162659,0l0,-23.213715zm0,11.606873l60.162659,0l0,23.214783l-60.162659,0l0,-23.214783z" stroke-linecap="null" stroke-linejoin="null" stroke-width="5" stroke="#000000" fill="none"/>
  <text transform="matrix(0.75,0,0,0.8518518805503845,11,12.888886392116547) " xml:space="preserve" text-anchor="middle" font-family="serif" font-size="20" id="svg_25" y="108" x="62" stroke-linecap="null" stroke-linejoin="null" stroke-width="0" stroke="#000000" fill="#000000">101</text>
  <text id="svg_26" transform="matrix(0.75,0,0,0.8518518805503845,11,12.888886392116547) " xml:space="preserve" text-anchor="middle" font-family="serif" font-size="20" y="109.120243" x="269.333333" stroke-linecap="null" stroke-linejoin="null" stroke-width="0" stroke="#000000" fill="#000000">103</text>
  <text id="svg_27" transform="matrix(0.75,0,0,0.8518518805503845,11,12.888886392116547) " xml:space="preserve" text-anchor="middle" font-family="serif" font-size="20" y="107.94633" x="369.333333" stroke-linecap="null" stroke-linejoin="null" stroke-width="0" stroke="#000000" fill="#000000">105</text>
  <text id="svg_28" transform="matrix(0.75,0,0,0.8518518805503845,11,12.888886392116547) " xml:space="preserve" text-anchor="middle" font-family="serif" font-size="20" y="110.294156" x="449.333333" stroke-linecap="null" stroke-linejoin="null" stroke-width="0" stroke="#000000" fill="#000000">107</text>
  <text id="svg_29" transform="matrix(0.75,0,0,0.8518518805503845,11,12.888886392116547) " xml:space="preserve" text-anchor="middle" font-family="serif" font-size="20" y="110.294156" x="534.666667" stroke-linecap="null" stroke-linejoin="null" stroke-width="0" stroke="#000000" fill="#000000">109</text>
  <text id="svg_30" transform="matrix(0.75,0,0,0.8518518805503845,11,12.888886392116547) " xml:space="preserve" text-anchor="middle" font-family="serif" font-size="20" y="111.468069" x="629.333333" stroke-linecap="null" stroke-linejoin="null" stroke-width="0" stroke="#000000" fill="#000000">111</text>
  <text id="svg_31" transform="matrix(0.75,0,0,0.8518518805503845,11,12.888886392116547) " xml:space="preserve" text-anchor="middle" font-family="serif" font-size="20" y="430.77241" x="68" stroke-linecap="null" stroke-linejoin="null" stroke-width="0" stroke="#000000" fill="#000000">102</text>
  <text id="svg_32" transform="matrix(0.75,0,0,0.8518518805503845,11,12.888886392116547) " xml:space="preserve" text-anchor="middle" font-family="serif" font-size="20" y="433.120236" x="270.666667" stroke-linecap="null" stroke-linejoin="null" stroke-width="0" stroke="#000000" fill="#000000">104</text>
  <text id="svg_33" transform="matrix(0.75,0,0,0.8518518805503845,11,12.888886392116547) " xml:space="preserve" text-anchor="middle" font-family="serif" font-size="20" y="431.946323" x="362.666667" stroke-linecap="null" stroke-linejoin="null" stroke-width="0" stroke="#000000" fill="#000000">106</text>
  <text id="svg_34" transform="matrix(0.75,0,0,0.8518518805503845,11,12.888886392116547) " xml:space="preserve" text-anchor="middle" font-family="serif" font-size="20" y="431.946323" x="448" stroke-linecap="null" stroke-linejoin="null" stroke-width="0" stroke="#000000" fill="#000000">108</text>
  <text id="svg_35" transform="matrix(0.75,0,0,0.8518518805503845,11,12.888886392116547) " xml:space="preserve" text-anchor="middle" font-family="serif" font-size="20" y="431.946323" x="521.333333" stroke-linecap="null" stroke-linejoin="null" stroke-width="0" stroke="#000000" fill="#000000">110</text>
  <text id="svg_36" transform="matrix(0.75,0,0,0.8518518805503845,11,12.888886392116547) " xml:space="preserve" text-anchor="middle" font-family="serif" font-size="20" y="431.946323" x="622.666667" stroke-linecap="null" stroke-linejoin="null" stroke-width="0" stroke="#000000" fill="#000000">112</text>
  <text transform="matrix(0.7419354915618896,0,0,0.8181818127632141,160.38709199428558,29.818182706832886) " xml:space="preserve" text-anchor="middle" font-family="serif" font-size="20" id="svg_37" y="203" x="592.521739" stroke-linecap="null" stroke-linejoin="null" stroke-width="0" stroke="#000000" fill="#000000">WC</text>
  <text id="svg_38" transform="matrix(0.7419354915618896,0,0,0.8181818127632141,160.38709199428558,29.818182706832886) " xml:space="preserve" text-anchor="middle" font-family="serif" font-size="20" y="289.602435" x="591.172227" stroke-linecap="null" stroke-linejoin="null" stroke-width="0" stroke="#000000" fill="#000000">WC</text>
  <path id="svg_39" d="m38.5504,238.832428l3.678375,-2.481934l-7.111908,0l-7.111908,0l0,-1.536133l0,-1.53653l7.030487,0c3.866592,0 7.030182,-0.077957 7.030182,-0.173172c0,-0.095215 -1.539612,-1.211807 -3.420837,-2.481735l-3.420547,-2.308762l3.161835,0l3.16153,0l4.828888,3.252975l4.828598,3.253372l-4.838028,3.246826l-4.837753,3.246826l-3.328781,0l-3.328217,0l3.678085,-2.481735l0,0z" stroke-linecap="null" stroke-linejoin="null" stroke-width="5" stroke="#000000" fill="none"/>
  <path transform="rotate(-89.9999771118164 581.0000000000001,389.00000000000006) " id="svg_40" d="m579.945374,393.01825l3.678345,-2.481934l-7.111877,0l-7.111877,0l0,-1.536133l0,-1.536499l7.030457,0c3.866577,0 7.030151,-0.077972 7.030151,-0.173187c0,-0.095215 -1.539612,-1.211792 -3.420837,-2.48172l-3.420532,-2.308777l3.161804,0l3.16156,0l4.828857,3.25296l4.828613,3.253387l-4.838013,3.246826l-4.837769,3.246826l-3.328796,0l-3.328186,0l3.678101,-2.48175l0,0z" stroke-linecap="null" stroke-linejoin="null" stroke-width="5" stroke="#000000" fill="none"/>
  <path id="svg_41" d="m256.692932,236.698547c0,-2.264282 -1.835781,-4.100062 -4.100062,-4.100062l0,0c0.741638,-0.742553 1.201269,-1.767111 1.201269,-2.899709c0,-2.265197 -1.835781,-4.100977 -4.100977,-4.100977c-1.131684,0 -2.157157,0.458716 -2.899709,1.201269c0,-2.264282 -1.835781,-4.100062 -4.100062,-4.100062c-2.265197,0 -4.100977,1.835781 -4.100977,4.100062c-0.742553,-0.741638 -1.767111,-1.201269 -2.899709,-1.201269c-2.265197,0 -4.100977,1.835781 -4.100977,4.100977c0,1.131684 0.458716,2.157157 1.201269,2.898793c-2.265197,0 -4.100977,1.835781 -4.100977,4.100977c0,2.265197 1.835781,4.100977 4.100977,4.100977c-0.742553,0.741638 -1.201269,1.767111 -1.201269,2.899709c0,2.264282 1.835781,4.100062 4.100977,4.100062c1.131684,0 2.157157,-0.458716 2.899709,-1.201269c0,2.264282 1.835781,4.100977 4.100977,4.100977c2.264282,0 4.100062,-1.836697 4.100062,-4.100977l0,0c0.742553,0.742553 1.768027,1.201269 2.899709,1.201269c2.265197,0 4.100062,-1.835781 4.100062,-4.100062c0,-1.132599 -0.458716,-2.158074 -1.201269,-2.900626c0.000916,0 0.000916,0 0.000916,0c2.265192,-0.000008 4.100062,-1.834862 4.100062,-4.10006zm-7.041901,4.78125c0.01465,0 0.028384,-0.000916 0.043033,-0.000916c1.225991,0 2.219418,0.993428 2.219418,2.220335c0,1.225075 -0.993428,2.219418 -2.219418,2.219418s-2.219418,-0.994344 -2.219418,-2.219418c0,-0.015565 0.000916,-0.028384 0.000916,-0.043033l-3.242144,-3.24306v4.586247c0.41843,0.402865 0.680291,0.970537 0.680291,1.59864c0,1.225991 -0.994344,2.219418 -2.219418,2.219418c-1.225991,0 -2.220335,-0.993428 -2.220335,-2.219418c0,-0.629018 0.261862,-1.195776 0.680291,-1.59864v-4.586247l-3.242144,3.24306c0,0.01465 0.000916,0.028384 0.000916,0.043033c0,1.225075 -0.993428,2.219418 -2.219418,2.219418s-2.219418,-0.994344 -2.219418,-2.219418c0,-1.226906 0.993428,-2.220335 2.219418,-2.220335c0.013734,0 0.028384,0.000916 0.042118,0.000916l3.24306,-3.242144h-4.585331c-0.402865,0.419345 -0.970537,0.680291 -1.59864,0.680291c-1.225991,0 -2.219418,-0.993428 -2.219418,-2.219418s0.993428,-2.219418 2.219418,-2.219418c0.628103,0 1.19486,0.260947 1.59864,0.681207h4.585332l-3.24306,-3.24306c-0.013734,0 -0.028384,0.000916 -0.042118,0.000916c-1.225991,0 -2.219418,-0.993428 -2.219418,-2.219418s0.994337,-2.219399 2.220335,-2.219399s2.219418,0.993428 2.219418,2.219418c0,0.013734 -0.000916,0.028384 -0.000916,0.042118l3.242144,3.24306v-4.58533c-0.41843,-0.40378 -0.680291,-0.970537 -0.680291,-1.59864c0,-1.225991 0.994344,-2.220335 2.220335,-2.220335c1.225075,0 2.219418,0.993428 2.219418,2.220335c0,0.628103 -0.261862,1.19486 -0.680291,1.59864v4.585332l3.242144,-3.24306c0,-0.013734 -0.000916,-0.028384 -0.000916,-0.042118c0,-1.225991 0.993428,-2.219418 2.219418,-2.219418s2.219418,0.993428 2.219418,2.219418c0,1.225991 -0.993428,2.219418 -2.219418,2.219418c-0.01465,0 -0.028384,-0.000916 -0.043033,-0.000916l-3.242144,3.24306h4.585332c0.40378,-0.419345 0.971454,-0.681207 1.599557,-0.681207c1.225075,0 2.218503,0.993428 2.218503,2.219418s-0.993428,2.219418 -2.218503,2.219418c-0.629018,0 -1.195776,-0.260947 -1.599557,-0.680291h-4.585332l3.241226,3.242122z" stroke-linecap="null" stroke-linejoin="null" stroke-width="5" stroke="#000000" fill="none"/>
  <path id="svg_42" d="0" stroke-linecap="null" stroke-linejoin="null" stroke-width="5" stroke="#000000" fill="none"/>
  <path id="svg_43" d="m485.549408,236.92804c0,-2.264283 -1.835781,-4.100062 -4.100062,-4.100062l0,0c0.741637,-0.742553 1.201269,-1.767111 1.201269,-2.899708c0,-2.265199 -1.835781,-4.100978 -4.100978,-4.100978c-1.131684,0 -2.157157,0.458717 -2.899708,1.201269c0,-2.264283 -1.835781,-4.100062 -4.100062,-4.100062c-2.265199,0 -4.100978,1.835781 -4.100978,4.100062c-0.742553,-0.741637 -1.767111,-1.201269 -2.899708,-1.201269c-2.265199,0 -4.100978,1.835781 -4.100978,4.100978c0,1.131684 0.458717,2.157157 1.201269,2.898793c-2.265199,0 -4.100978,1.835781 -4.100978,4.100978c0,2.265199 1.835781,4.100978 4.100978,4.100978c-0.742553,0.741637 -1.201269,1.767111 -1.201269,2.899708c0,2.264283 1.835781,4.100062 4.100978,4.100062c1.131684,0 2.157157,-0.458717 2.899708,-1.201269c0,2.264283 1.835781,4.100978 4.100978,4.100978c2.264283,0 4.100062,-1.836697 4.100062,-4.100978l0,0c0.742553,0.742553 1.768028,1.201269 2.899708,1.201269c2.265199,0 4.100062,-1.835781 4.100062,-4.100062c0,-1.132599 -0.458717,-2.158072 -1.201269,-2.900625c0.000916,0 0.000916,0 0.000916,0c2.265621,0.000067 4.100063,-1.834864 4.100063,-4.100062zm-7.041382,4.781387c0.01465,0 0.028384,-0.000916 0.043033,-0.000916c1.22599,0 2.219419,0.993428 2.219419,2.220334c0,1.225075 -0.993428,2.219419 -2.219419,2.219419s-2.219419,-0.994343 -2.219419,-2.219419c0,-0.015565 0.000916,-0.028384 0.000916,-0.043033l-3.242144,-3.243061v4.586247c0.41843,0.402865 0.680292,0.970538 0.680292,1.59864c0,1.22599 -0.994343,2.219419 -2.219419,2.219419c-1.22599,0 -2.220334,-0.993428 -2.220334,-2.219419c0,-0.629018 0.261862,-1.195776 0.680292,-1.59864v-4.586247l-3.242144,3.243061c0,0.01465 0.000916,0.028384 0.000916,0.043033c0,1.225075 -0.993428,2.219419 -2.219419,2.219419s-2.219419,-0.994343 -2.219419,-2.219419c0,-1.226906 0.993428,-2.220334 2.219419,-2.220334c0.013734,0 0.028384,0.000916 0.042118,0.000916l3.243061,-3.242144h-4.585501c-0.402865,0.419346 -0.970538,0.680292 -1.59864,0.680292c-1.22599,0 -2.219419,-0.993428 -2.219419,-2.219419s0.993428,-2.219419 2.219419,-2.219419c0.628102,0 1.19486,0.260947 1.59864,0.681207h4.585331l-3.243061,-3.243061c-0.013734,0 -0.028384,0.000916 -0.042118,0.000916c-1.22599,0 -2.219419,-0.993428 -2.219419,-2.219419s0.993393,-2.219443 2.220047,-2.219443s2.219419,0.993428 2.219419,2.219419c0,0.013734 -0.000916,0.028384 -0.000916,0.042118l3.242144,3.243061v-4.585301c-0.41843,-0.40378 -0.680292,-0.970538 -0.680292,-1.59864c0,-1.22599 0.994343,-2.220334 2.220334,-2.220334c1.225075,0 2.219419,0.993428 2.219419,2.220334c0,0.628102 -0.261862,1.19486 -0.680292,1.59864v4.585331l3.242144,-3.243061c0,-0.013734 -0.000916,-0.028384 -0.000916,-0.042118c0,-1.22599 0.993428,-2.219419 2.219419,-2.219419s2.219419,0.993428 2.219419,2.219419c0,1.22599 -0.993428,2.219419 -2.219419,2.219419c-0.01465,0 -0.028384,-0.000916 -0.043033,-0.000916l-3.242144,3.243061h4.585331c0.40378,-0.419346 0.971453,-0.681207 1.599556,-0.681207c1.225075,0 2.218504,0.993428 2.218504,2.219419s-0.993428,2.219419 -2.218504,2.219419c-0.629018,0 -1.195776,-0.260947 -1.599556,-0.680292h-4.585331l3.241685,3.242138z" stroke-linecap="null" stroke-linejoin="null" stroke-width="5" stroke="#000000" fill="none"/>
  <path id="svg_44" d="m332.24353,236.427567c0,-2.345075 -1.901284,-4.246358 -4.246358,-4.246358l0,0c0.7681,-0.769047 1.244133,-1.830164 1.244133,-3.003175c0,-2.346024 -1.901284,-4.247306 -4.247306,-4.247306c-1.172063,0 -2.234128,0.475084 -3.003175,1.244133c0,-2.345075 -1.901284,-4.246358 -4.246358,-4.246358c-2.346024,0 -4.247306,1.901284 -4.247306,4.246358c-0.769047,-0.7681 -1.830164,-1.244133 -3.003175,-1.244133c-2.346024,0 -4.247306,1.901284 -4.247306,4.247306c0,1.172063 0.475084,2.234128 1.244133,3.002225c-2.346024,0 -4.247306,1.901284 -4.247306,4.247306c0,2.346024 1.901284,4.247306 4.247306,4.247306c-0.769047,0.7681 -1.244133,1.830164 -1.244133,3.003175c0,2.345075 1.901284,4.246358 4.247306,4.246358c1.172063,0 2.234128,-0.475084 3.003175,-1.244133c0,2.345075 1.901284,4.247306 4.247306,4.247306c2.345075,0 4.246358,-1.902231 4.246358,-4.247306l0,0c0.769047,0.769047 1.831112,1.244133 3.003175,1.244133c2.346024,0 4.246358,-1.901284 4.246358,-4.246358c0,-1.173012 -0.475084,-2.235076 -1.244133,-3.004123c0.000948,0 0.000948,0 0.000948,0c2.345357,0.000026 4.246358,-1.900318 4.246358,-4.246357zm-7.295227,4.951965c0.015172,0 0.029396,-0.000948 0.044569,-0.000948c1.269735,0 2.29861,1.028875 2.29861,2.299557c0,1.268787 -1.028875,2.29861 -2.29861,2.29861s-2.29861,-1.029823 -2.29861,-2.29861c0,-0.016121 0.000948,-0.029396 0.000948,-0.044569l-3.357826,-3.358775v4.749888c0.43336,0.41724 0.704566,1.005168 0.704566,1.655682c0,1.269735 -1.029823,2.29861 -2.29861,2.29861c-1.269735,0 -2.299557,-1.028875 -2.299557,-2.29861c0,-0.651462 0.271206,-1.238442 0.704566,-1.655682v-4.749888l-3.357826,3.358775c0,0.015172 0.000948,0.029396 0.000948,0.044569c0,1.268787 -1.028875,2.29861 -2.29861,2.29861s-2.29861,-1.029823 -2.29861,-2.29861c0,-1.270683 1.028875,-2.299557 2.29861,-2.299557c0.014224,0 0.029396,0.000948 0.043621,0.000948l3.358775,-3.357826h-4.747826c-0.41724,0.434308 -1.005168,0.704566 -1.655682,0.704566c-1.269735,0 -2.29861,-1.028875 -2.29861,-2.29861s1.028875,-2.29861 2.29861,-2.29861c0.650514,0 1.237495,0.270258 1.655682,0.705514h4.748941l-3.358775,-3.358775c-0.014224,0 -0.029396,0.000948 -0.043621,0.000948c-1.269735,0 -2.29861,-1.028875 -2.29861,-2.29861s1.029945,-2.298643 2.297676,-2.298643s2.29861,1.028875 2.29861,2.29861c0,0.014224 -0.000948,0.029396 -0.000948,0.043621l3.357826,3.358775v-4.748872c-0.43336,-0.418187 -0.704566,-1.005168 -0.704566,-1.655682c0,-1.269735 1.029823,-2.299557 2.299557,-2.299557c1.268787,0 2.29861,1.028875 2.29861,2.299557c0,0.650514 -0.271206,1.237495 -0.704566,1.655682v4.748941l3.357826,-3.358775c0,-0.014224 -0.000948,-0.029396 -0.000948,-0.043621c0,-1.269735 1.028875,-2.29861 2.29861,-2.29861s2.29861,1.028875 2.29861,2.29861c0,1.269735 -1.028875,2.29861 -2.29861,2.29861c-0.015172,0 -0.029396,-0.000948 -0.044569,-0.000948l-3.357826,3.358775h4.748941c0.418187,-0.434308 1.006116,-0.705514 1.65663,-0.705514c1.268787,0 2.297661,1.028875 2.297661,2.29861s-1.028875,2.29861 -2.297661,2.29861c-0.651462,0 -1.238442,-0.270258 -1.65663,-0.704566h-4.748941l3.357645,3.35779z" stroke-linecap="null" stroke-linejoin="null" stroke-width="5" stroke="#000000" fill="none"/>
  <path id="svg_45" d="m415.864471,236.908035c0,-2.264282 -1.835782,-4.100063 -4.100063,-4.100063l0,0c0.741637,-0.742553 1.201269,-1.767111 1.201269,-2.899708c0,-2.265199 -1.835782,-4.100978 -4.100978,-4.100978c-1.131684,0 -2.157157,0.458717 -2.899708,1.201269c0,-2.264282 -1.835782,-4.100063 -4.100063,-4.100063c-2.265199,0 -4.100978,1.835782 -4.100978,4.100063c-0.742553,-0.741637 -1.767111,-1.201269 -2.899708,-1.201269c-2.265199,0 -4.100978,1.835782 -4.100978,4.100978c0,1.131684 0.458717,2.157157 1.201269,2.898793c-2.265199,0 -4.100978,1.835782 -4.100978,4.100978c0,2.265199 1.835782,4.100978 4.100978,4.100978c-0.742553,0.741637 -1.201269,1.767111 -1.201269,2.899708c0,2.264282 1.835782,4.100063 4.100978,4.100063c1.131684,0 2.157157,-0.458717 2.899708,-1.201269c0,2.264282 1.835782,4.100978 4.100978,4.100978c2.264282,0 4.100063,-1.836697 4.100063,-4.100978l0,0c0.742553,0.742553 1.768025,1.201269 2.899708,1.201269c2.265199,0 4.100063,-1.835782 4.100063,-4.100063c0,-1.132599 -0.458717,-2.158072 -1.201269,-2.900623c0.000916,0 0.000916,0 0.000916,0c2.264094,0.000066 4.100062,-1.835032 4.100062,-4.100062zm-7.041382,4.781235c0.01465,0 0.028384,-0.000916 0.043033,-0.000916c1.225991,0 2.219419,0.993428 2.219419,2.220335c0,1.225075 -0.993428,2.219419 -2.219419,2.219419s-2.219419,-0.994343 -2.219419,-2.219419c0,-0.015565 0.000916,-0.028384 0.000916,-0.043033l-3.242141,-3.24306v4.586246c0.41843,0.402865 0.680292,0.970537 0.680292,1.59864c0,1.225991 -0.994343,2.219419 -2.219419,2.219419c-1.225991,0 -2.220335,-0.993428 -2.220335,-2.219419c0,-0.629018 0.261862,-1.195776 0.680292,-1.59864v-4.586246l-3.242141,3.24306c0,0.01465 0.000916,0.028384 0.000916,0.043033c0,1.225075 -0.993428,2.219419 -2.219419,2.219419s-2.219419,-0.994343 -2.219419,-2.219419c0,-1.226907 0.993428,-2.220335 2.219419,-2.220335c0.013734,0 0.028384,0.000916 0.042118,0.000916l3.24306,-3.242141h-4.586389c-0.402865,0.419345 -0.970537,0.680292 -1.59864,0.680292c-1.225991,0 -2.219419,-0.993428 -2.219419,-2.219419s0.993428,-2.219419 2.219419,-2.219419c0.628103,0 1.19486,0.260947 1.59864,0.681208h4.585332l-3.24306,-3.24306c-0.013734,0 -0.028384,0.000916 -0.042118,0.000916c-1.225991,0 -2.219419,-0.993428 -2.219419,-2.219419s0.99446,-2.219308 2.221053,-2.219308s2.219419,0.993428 2.219419,2.219419c0,0.013734 -0.000916,0.028384 -0.000916,0.042118l3.242141,3.24306v-4.585316c-0.41843,-0.40378 -0.680292,-0.970537 -0.680292,-1.59864c0,-1.225991 0.994343,-2.220335 2.220335,-2.220335c1.225075,0 2.219419,0.993428 2.219419,2.220335c0,0.628103 -0.261862,1.19486 -0.680292,1.59864v4.585332l3.242141,-3.24306c0,-0.013734 -0.000916,-0.028384 -0.000916,-0.042118c0,-1.225991 0.993428,-2.219419 2.219419,-2.219419s2.219419,0.993428 2.219419,2.219419c0,1.225991 -0.993428,2.219419 -2.219419,2.219419c-0.01465,0 -0.028384,-0.000916 -0.043033,-0.000916l-3.242141,3.24306h4.585332c0.40378,-0.419345 0.971453,-0.681208 1.599557,-0.681208c1.225075,0 2.218504,0.993428 2.218504,2.219419s-0.993428,2.219419 -2.218504,2.219419c-0.629018,0 -1.195776,-0.260947 -1.599557,-0.680292h-4.585332l3.241564,3.242014z" stroke-linecap="null" stroke-linejoin="null" stroke-width="5" stroke="#000000" fill="none"/>
  <path id="svg_46" d="m147.692001,202.198181c0,-2.021613 -1.639036,-3.660649 -3.660649,-3.660649l0,0c0.662155,-0.662972 1.072526,-1.577726 1.072526,-2.58894c0,-2.022432 -1.639036,-3.661468 -3.661468,-3.661468c-1.010398,0 -1.925969,0.409555 -2.58894,1.072526c0,-2.021613 -1.639036,-3.660649 -3.660649,-3.660649c-2.022432,0 -3.661468,1.639036 -3.661468,3.660649c-0.662972,-0.662155 -1.577726,-1.072526 -2.58894,-1.072526c-2.022432,0 -3.661468,1.639036 -3.661468,3.661468c0,1.010398 0.409555,1.925969 1.072526,2.588123c-2.022432,0 -3.661468,1.639036 -3.661468,3.661468c0,2.022432 1.639036,3.661468 3.661468,3.661468c-0.662972,0.662155 -1.072526,1.577726 -1.072526,2.58894c0,2.021613 1.639036,3.660649 3.661468,3.660649c1.010398,0 1.925969,-0.409555 2.58894,-1.072526c0,2.021613 1.639036,3.661468 3.661468,3.661468c2.021613,0 3.660649,-1.639853 3.660649,-3.661468l0,0c0.662972,0.662972 1.578544,1.072526 2.58894,1.072526c2.022432,0 3.660649,-1.639036 3.660649,-3.660649c0,-1.011216 -0.409555,-1.926788 -1.072526,-2.589757c0.000817,0 0.000817,0 0.000817,0c2.022436,-0.000007 3.66065,-1.638221 3.66065,-3.660652zm-6.287201,4.268845c0.01308,0 0.025342,-0.000817 0.038421,-0.000817c1.094598,0 1.981558,0.88696 1.981558,1.982375c0,1.093781 -0.88696,1.981558 -1.981558,1.981558s-1.981558,-0.887777 -1.981558,-1.981558c0,-0.013897 0.000817,-0.025342 0.000817,-0.038421l-2.894674,-2.895494v4.094728c0.373585,0.359689 0.607384,0.866523 0.607384,1.42731c0,1.094598 -0.887777,1.981558 -1.981558,1.981558c-1.094598,0 -1.982375,-0.88696 -1.982375,-1.981558c0,-0.561604 0.233798,-1.067622 0.607384,-1.42731v-4.094728l-2.894674,2.895494c0,0.01308 0.000817,0.025342 0.000817,0.038421c0,1.093781 -0.88696,1.981558 -1.981558,1.981558s-1.981558,-0.887777 -1.981558,-1.981558c0,-1.095415 0.88696,-1.982375 1.981558,-1.982375c0.012262,0 0.025342,0.000817 0.037604,0.000817l2.895494,-2.894674h-4.093915c-0.359689,0.374403 -0.866523,0.607384 -1.42731,0.607384c-1.094598,0 -1.981558,-0.88696 -1.981558,-1.981558s0.88696,-1.981558 1.981558,-1.981558c0.560787,0 1.066804,0.23298 1.42731,0.608202h4.093911l-2.895494,-2.895494c-0.012262,0 -0.025342,0.000817 -0.037604,0.000817c-1.094598,0 -1.981558,-0.88696 -1.981558,-1.981558s0.887777,-1.981545 1.982382,-1.981545s1.981558,0.88696 1.981558,1.981558c0,0.012262 -0.000817,0.025342 -0.000817,0.037604l2.894674,2.895494v-4.093916c-0.373585,-0.360507 -0.607384,-0.866523 -0.607384,-1.42731c0,-1.094598 0.887777,-1.982375 1.982375,-1.982375c1.093781,0 1.981558,0.88696 1.981558,1.982375c0,0.560787 -0.233798,1.066804 -0.607384,1.42731v4.093911l2.894674,-2.895494c0,-0.012262 -0.000817,-0.025342 -0.000817,-0.037604c0,-1.094598 0.88696,-1.981558 1.981558,-1.981558s1.981558,0.88696 1.981558,1.981558c0,1.094598 -0.88696,1.981558 -1.981558,1.981558c-0.01308,0 -0.025342,-0.000817 -0.038421,-0.000817l-2.894674,2.895494h4.093911c0.360507,-0.374403 0.867341,-0.608202 1.428127,-0.608202c1.093781,0 1.980742,0.88696 1.980742,1.981558s-0.88696,1.981558 -1.980742,1.981558c-0.561604,0 -1.067622,-0.23298 -1.428127,-0.607384h-4.093911l2.893855,2.894668z" stroke-linecap="null" stroke-linejoin="null" stroke-width="5" stroke="#000000" fill="none"/>
  <path id="svg_47" d="m142.692764,268.198639c0,-1.859946 -1.507963,-3.36791 -3.36791,-3.36791l0,0c0.609201,-0.609954 0.986757,-1.451555 0.986757,-2.381904c0,-1.860698 -1.507963,-3.36866 -3.36866,-3.36866c-0.929597,0 -1.77195,0.376803 -2.381904,0.986757c0,-1.859946 -1.507963,-3.36791 -3.36791,-3.36791c-1.860698,0 -3.36866,1.507963 -3.36866,3.36791c-0.609954,-0.609201 -1.451555,-0.986757 -2.381904,-0.986757c-1.860698,0 -3.36866,1.507963 -3.36866,3.36866c0,0.929597 0.376803,1.77195 0.986757,2.381152c-1.860698,0 -3.36866,1.507963 -3.36866,3.36866c0,1.860698 1.507963,3.36866 3.36866,3.36866c-0.609954,0.609201 -0.986757,1.451555 -0.986757,2.381904c0,1.859946 1.507963,3.36791 3.36866,3.36791c0.929597,0 1.77195,-0.376803 2.381904,-0.986757c0,1.859946 1.507963,3.36866 3.36866,3.36866c1.859946,0 3.36791,-1.508715 3.36791,-3.36866l0,0c0.609954,0.609954 1.452308,0.986757 2.381904,0.986757c1.860698,0 3.36791,-1.507963 3.36791,-3.36791c0,-0.93035 -0.376803,-1.772702 -0.986757,-2.382656c0.000752,0 0.000752,0 0.000752,0c1.860676,-0.000017 3.367908,-1.507219 3.367908,-3.367907zm-5.784424,3.92746c0.012034,0 0.023315,-0.000752 0.035349,-0.000752c1.007064,0 1.823093,0.816031 1.823093,1.823845c0,1.006312 -0.816031,1.823093 -1.823093,1.823093s-1.823093,-0.816782 -1.823093,-1.823093c0,-0.012786 0.000752,-0.023315 0.000752,-0.035349l-2.663189,-2.663943v3.767274c0.34371,0.330924 0.558811,0.797227 0.558811,1.313168c0,1.007064 -0.816782,1.823093 -1.823093,1.823093c-1.007064,0 -1.823845,-0.816031 -1.823845,-1.823093c0,-0.516694 0.215101,-0.982244 0.558811,-1.313168v-3.767274l-2.663189,2.663943c0,0.012034 0.000752,0.023315 0.000752,0.035349c0,1.006312 -0.816031,1.823093 -1.823093,1.823093s-1.823093,-0.816782 -1.823093,-1.823093c0,-1.007816 0.816031,-1.823845 1.823093,-1.823845c0.011282,0 0.023315,0.000752 0.034597,0.000752l2.663943,-2.663189h-3.766518c-0.330924,0.344463 -0.797227,0.558811 -1.313168,0.558811c-1.007064,0 -1.823093,-0.816031 -1.823093,-1.823093s0.816031,-1.823093 1.823093,-1.823093c0.515941,0 0.981493,0.214349 1.313168,0.559563h3.766522l-2.663943,-2.663943c-0.011282,0 -0.023315,0.000752 -0.034597,0.000752c-1.007064,0 -1.823093,-0.816031 -1.823093,-1.823093s0.816786,-1.823083 1.823835,-1.823083s1.823093,0.816031 1.823093,1.823093c0,0.011282 -0.000752,0.023315 -0.000752,0.034597l2.663189,2.663943v-3.766536c-0.34371,-0.331677 -0.558811,-0.797227 -0.558811,-1.313168c0,-1.007064 0.816782,-1.823845 1.823845,-1.823845c1.006312,0 1.823093,0.816031 1.823093,1.823845c0,0.515941 -0.215101,0.981493 -0.558811,1.313168v3.766522l2.663189,-2.663943c0,-0.011282 -0.000752,-0.023315 -0.000752,-0.034597c0,-1.007064 0.816031,-1.823093 1.823093,-1.823093s1.823093,0.816031 1.823093,1.823093c0,1.007064 -0.816031,1.823093 -1.823093,1.823093c-0.012034,0 -0.023315,-0.000752 -0.035349,-0.000752l-2.663189,2.663943h3.766522c0.331677,-0.344463 0.797979,-0.559563 1.313921,-0.559563c1.006312,0 1.822342,0.816031 1.822342,1.823093s-0.816031,1.823093 -1.822342,1.823093c-0.516694,0 -0.982244,-0.214349 -1.313921,-0.558811h-3.766522l2.662443,2.663192z" stroke-linecap="null" stroke-linejoin="null" stroke-width="5" stroke="#000000" fill="none"/>
 </g>
</svg>